<?xml version="1.0" encoding="iso-8859-1"?>
<!-- Generator: Adobe Illustrator 17.1.0, SVG Export Plug-In . SVG Version: 6.00 Build 0)  -->
<!DOCTYPE svg PUBLIC "-//W3C//DTD SVG 1.1//EN" "http://www.w3.org/Graphics/SVG/1.1/DTD/svg11.dtd">
<svg version="1.1" id="Capa_1" xmlns="http://www.w3.org/2000/svg" xmlns:xlink="http://www.w3.org/1999/xlink" x="0px" y="0px"
	 viewBox="0 0 511 511" style="enable-background:new 0 0 511 511;" xml:space="preserve">
<g>
	<path d="M431.5,176H327v-7.5c0-4.687-3.813-8.5-8.5-8.5H279V78.091c13.759-3.374,24-15.806,24-30.591V47h48.5
		c12.958,0,23.5-10.542,23.5-23.5v-16c0-4.142-3.358-7.5-7.5-7.5h-224c-4.142,0-7.5,3.358-7.5,7.5v16
		c0,12.958,10.542,23.5,23.5,23.5H208v0.5c0,14.785,10.241,27.216,24,30.591V160h-39.5c-4.687,0-8.5,3.813-8.5,8.5v7.5H79.5
		C48.897,176,24,200.897,24,231.5v208c0,30.603,24.897,55.5,55.5,55.5H184v7.5c0,4.687,3.813,8.5,8.5,8.5h126
		c4.687,0,8.5-3.813,8.5-8.5V495h104.5c30.603,0,55.5-24.897,55.5-55.5v-208C487,200.897,462.103,176,431.5,176z M151,23.5V15h209
		v8.5c0,4.687-3.813,8.5-8.5,8.5h-192C154.813,32,151,28.187,151,23.5z M223,47.5V47h65v0.5c0,9.098-7.402,16.5-16.5,16.5h-32
		C230.402,64,223,56.598,223,47.5z M247,79h17v81h-17V79z M312,175v8.452c0,0.016-0.002,0.032-0.002,0.048s0.002,0.032,0.002,0.048
		V200H199v-16.49c0-0.003,0-0.006,0-0.01s0-0.006,0-0.01V175H312z M199,496v-8.49c0-0.003,0-0.006,0-0.01s0-0.006,0-0.01V471h113
		v16.452c0,0.016-0.002,0.032-0.002,0.048s0.002,0.032,0.002,0.048V496H199z M472,439.5c0,22.332-18.168,40.5-40.5,40.5H327v-14.5
		c0-5.238-4.262-9.5-9.5-9.5h-124c-5.238,0-9.5,4.262-9.5,9.5V480H79.5C57.168,480,39,461.832,39,439.5v-208
		c0-22.332,18.168-40.5,40.5-40.5H184v14.5c0,5.238,4.262,9.5,9.5,9.5h124c5.238,0,9.5-4.262,9.5-9.5V191h104.5
		c22.332,0,40.5,18.168,40.5,40.5V439.5z"/>
	<path d="M183.5,232C126.43,232,80,278.43,80,335.5S126.43,439,183.5,439S287,392.57,287,335.5S240.57,232,183.5,232z M183.5,424
		c-48.799,0-88.5-39.701-88.5-88.5s39.701-88.5,88.5-88.5s88.5,39.701,88.5,88.5S232.299,424,183.5,424z"/>
	<path d="M219.264,273.575c-5.603-3.243-11.616-5.704-17.874-7.317c-4.008-1.033-8.101,1.379-9.134,5.391
		c-1.034,4.011,1.38,8.101,5.391,9.134c4.937,1.272,9.682,3.215,14.104,5.774c1.183,0.685,2.474,1.01,3.75,1.01
		c2.589,0,5.108-1.343,6.498-3.745C224.074,280.238,222.85,275.649,219.264,273.575z"/>
	<path d="M235.875,297.953c-3.623,2.008-4.932,6.573-2.923,10.196c4.611,8.317,7.048,17.775,7.048,27.351
		c0,4.789-0.599,9.543-1.78,14.131c-1.033,4.011,1.382,8.1,5.394,9.133c0.627,0.162,1.256,0.239,1.875,0.239
		c3.34,0,6.387-2.248,7.258-5.632c1.495-5.809,2.253-11.821,2.253-17.87c0-12.114-3.087-24.087-8.929-34.624
		C244.063,297.254,239.499,295.945,235.875,297.953z"/>
	<path d="M207.5,328c-4.142,0-7.5,3.358-7.5,7.5c0,9.098-7.402,16.5-16.5,16.5s-16.5-7.402-16.5-16.5s7.402-16.5,16.5-16.5
		c4.142,0,7.5-3.358,7.5-7.5s-3.358-7.5-7.5-7.5c-17.369,0-31.5,14.131-31.5,31.5s14.131,31.5,31.5,31.5s31.5-14.131,31.5-31.5
		C215,331.358,211.642,328,207.5,328z"/>
	<path d="M439.5,232c-4.142,0-7.5,3.358-7.5,7.5c0,4.687-3.813,8.5-8.5,8.5s-8.5-3.813-8.5-8.5s3.813-8.5,8.5-8.5
		c4.142,0,7.5-3.358,7.5-7.5s-3.358-7.5-7.5-7.5c-12.958,0-23.5,10.542-23.5,23.5s10.542,23.5,23.5,23.5s23.5-10.542,23.5-23.5
		C447,235.358,443.642,232,439.5,232z"/>
	<path d="M375.5,232h-16c-4.142,0-7.5,3.358-7.5,7.5s3.358,7.5,7.5,7.5h16c4.142,0,7.5-3.358,7.5-7.5S379.642,232,375.5,232z"/>
	<path d="M87,239.5c0-4.142-3.358-7.5-7.5-7.5h-8c-4.142,0-7.5,3.358-7.5,7.5s3.358,7.5,7.5,7.5h8C83.642,247,87,243.642,87,239.5z"
		/>
</g>
<g>
</g>
<g>
</g>
<g>
</g>
<g>
</g>
<g>
</g>
<g>
</g>
<g>
</g>
<g>
</g>
<g>
</g>
<g>
</g>
<g>
</g>
<g>
</g>
<g>
</g>
<g>
</g>
<g>
</g>
</svg>
